<svg width="90" height="90" viewBox="0 0 90 90" fill="none" xmlns="http://www.w3.org/2000/svg">
<path d="M64.6875 64.6875V73.125H23.9062C20.5496 73.125 17.3304 71.7916 14.9569 69.4181C12.5834 67.0446 11.25 63.8254 11.25 60.4688C11.25 57.1121 12.5834 53.8929 14.9569 51.5194C17.3304 49.1459 20.5496 47.8125 23.9062 47.8125H25.3125V42.1875H23.9062C19.0578 42.1875 14.4079 44.1136 10.9795 47.542C7.55105 50.9704 5.625 55.6203 5.625 60.4688C5.625 65.3172 7.55105 69.9671 10.9795 73.3955C14.4079 76.8239 19.0578 78.75 23.9062 78.75H64.6875V87.1875H87.1875V64.6875H64.6875ZM81.5625 81.5625H70.3125V70.3125H81.5625V81.5625Z" fill="#C30711"/>
<path d="M59.0625 61.875H53.4375V53.4375H36.5625V61.875H30.9375V53.4375C30.939 51.9461 31.5321 50.5162 32.5867 49.4617C33.6412 48.4071 35.0711 47.814 36.5625 47.8125H53.4375C54.9289 47.814 56.3588 48.4071 57.4133 49.4617C58.4679 50.5162 59.061 51.9461 59.0625 53.4375V61.875ZM45 45C43.3312 45 41.6999 44.5052 40.3124 43.578C38.9248 42.6509 37.8434 41.3331 37.2048 39.7914C36.5662 38.2496 36.3991 36.5531 36.7246 34.9164C37.0502 33.2797 37.8538 31.7763 39.0338 30.5963C40.2138 29.4163 41.7172 28.6127 43.3539 28.2871C44.9906 27.9616 46.6871 28.1287 48.2289 28.7673C49.7706 29.4059 51.0884 30.4873 52.0155 31.8749C52.9427 33.2624 53.4375 34.8937 53.4375 36.5625C53.4353 38.7996 52.5456 40.9444 50.9637 42.5263C49.3819 44.1081 47.2371 44.9978 45 45ZM45 33.75C44.4437 33.75 43.9 33.915 43.4375 34.224C42.9749 34.533 42.6145 34.9723 42.4016 35.4862C42.1887 36.0001 42.133 36.5656 42.2415 37.1112C42.3501 37.6568 42.6179 38.1579 43.0113 38.5512C43.4046 38.9446 43.9057 39.2124 44.4513 39.321C44.9969 39.4295 45.5624 39.3738 46.0763 39.1609C46.5902 38.948 47.0295 38.5876 47.3385 38.125C47.6476 37.6625 47.8125 37.1188 47.8125 36.5625C47.8118 35.8168 47.5152 35.1019 46.9879 34.5746C46.4606 34.0473 45.7457 33.7507 45 33.75Z" fill="#C30711"/>
<path d="M66.0938 11.25H25.3125V2.8125H2.8125V25.3125H25.3125V16.875H66.0938C69.4504 16.875 72.6696 18.2084 75.0431 20.5819C77.4166 22.9554 78.75 26.1746 78.75 29.5312C78.75 32.8879 77.4166 36.1071 75.0431 38.4806C72.6696 40.8541 69.4504 42.1875 66.0938 42.1875H64.6875V47.8125H66.0938C70.9422 47.8125 75.5921 45.8864 79.0205 42.458C82.4489 39.0296 84.375 34.3797 84.375 29.5312C84.375 24.6828 82.4489 20.0329 79.0205 16.6045C75.5921 13.1761 70.9422 11.25 66.0938 11.25ZM19.6875 19.6875H8.4375V8.4375H19.6875V19.6875Z" fill="#C30711"/>
</svg>
