<svg width="91" height="90" viewBox="0 0 91 90" fill="none" xmlns="http://www.w3.org/2000/svg">
<path d="M45.5 33.75C52.7487 33.75 58.625 27.8737 58.625 20.625C58.625 13.3763 52.7487 7.5 45.5 7.5C38.2513 7.5 32.375 13.3763 32.375 20.625C32.375 27.8737 38.2513 33.75 45.5 33.75Z" fill="#EDB5B7" stroke="#C30711" stroke-width="4.08333" stroke-linecap="round" stroke-linejoin="round"/>
<path d="M8 76.875C8 60.3064 23.1104 46.875 41.75 46.875" stroke="#C30711" stroke-width="4.08333" stroke-linecap="round" stroke-linejoin="round"/>
<path d="M60.2188 52.5C56.2319 52.5 53 56.2661 53 60.912C53 69.3238 61.5312 76.9712 66.125 78.75C70.7188 76.9712 79.25 69.3238 79.25 60.912C79.25 56.2661 76.0181 52.5 72.0313 52.5C69.5898 52.5 67.4313 53.9124 66.125 56.0741C64.8187 53.9124 62.6602 52.5 60.2188 52.5Z" fill="#EDB5B7" stroke="#C30711" stroke-width="4.08333" stroke-linecap="round" stroke-linejoin="round"/>
</svg>
