<svg width="91" height="90" viewBox="0 0 91 90" fill="none" xmlns="http://www.w3.org/2000/svg">
<path d="M45.5 41.25C50.4728 41.25 55.242 43.2254 58.7583 46.7418C62.2746 50.2581 64.25 55.0272 64.25 60V82.5H26.75V60C26.75 55.0272 28.7254 50.2581 32.2418 46.7418C35.7581 43.2254 40.5272 41.25 45.5 41.25ZM20.33 52.5225C19.7332 54.5355 19.3807 56.6129 19.28 58.71L19.25 60V82.5H8V65.625C7.99926 62.3909 9.19261 59.2704 11.3511 56.862C13.5097 54.4537 16.4814 52.9271 19.6963 52.575L20.3338 52.5225H20.33ZM70.67 52.5225C74.0072 52.7259 77.141 54.1948 79.4323 56.6296C81.7235 59.0644 82.9995 62.2817 83 65.625V82.5H71.75V60C71.75 57.4013 71.375 54.8925 70.67 52.5225ZM21.125 30C23.6114 30 25.996 30.9877 27.7541 32.7459C29.5123 34.504 30.5 36.8886 30.5 39.375C30.5 41.8614 29.5123 44.246 27.7541 46.0041C25.996 47.7623 23.6114 48.75 21.125 48.75C18.6386 48.75 16.254 47.7623 14.4959 46.0041C12.7377 44.246 11.75 41.8614 11.75 39.375C11.75 36.8886 12.7377 34.504 14.4959 32.7459C16.254 30.9877 18.6386 30 21.125 30ZM69.875 30C72.3614 30 74.746 30.9877 76.5041 32.7459C78.2623 34.504 79.25 36.8886 79.25 39.375C79.25 41.8614 78.2623 44.246 76.5041 46.0041C74.746 47.7623 72.3614 48.75 69.875 48.75C67.3886 48.75 65.004 47.7623 63.2459 46.0041C61.4877 44.246 60.5 41.8614 60.5 39.375C60.5 36.8886 61.4877 34.504 63.2459 32.7459C65.004 30.9877 67.3886 30 69.875 30ZM45.5 7.5C49.4783 7.5 53.2936 9.08035 56.1066 11.8934C58.9197 14.7064 60.5 18.5218 60.5 22.5C60.5 26.4783 58.9197 30.2936 56.1066 33.1066C53.2936 35.9197 49.4783 37.5 45.5 37.5C41.5218 37.5 37.7064 35.9197 34.8934 33.1066C32.0804 30.2936 30.5 26.4783 30.5 22.5C30.5 18.5218 32.0804 14.7064 34.8934 11.8934C37.7064 9.08035 41.5218 7.5 45.5 7.5Z" fill="#C30711"/>
</svg>
