<svg width="90" height="90" viewBox="0 0 90 90" fill="none" xmlns="http://www.w3.org/2000/svg">
<path d="M15 60C19.1421 60 22.5 56.6421 22.5 52.5C22.5 48.3579 19.1421 45 15 45C10.8579 45 7.5 48.3579 7.5 52.5C7.5 56.6421 10.8579 60 15 60Z" fill="#C30711"/>
<path d="M4.575 65.925C3.21642 66.5057 2.05846 67.4729 1.24507 68.7063C0.431673 69.9397 -0.00128882 71.385 2.88185e-06 72.8625V78.75H16.875V72.7125C16.875 69.6 17.7375 66.675 19.2375 64.125C17.85 63.9 16.4625 63.75 15 63.75C11.2875 63.75 7.7625 64.5375 4.575 65.925Z" fill="#C30711"/>
<path d="M75 60C79.1421 60 82.5 56.6421 82.5 52.5C82.5 48.3579 79.1421 45 75 45C70.8579 45 67.5 48.3579 67.5 52.5C67.5 56.6421 70.8579 60 75 60Z" fill="#C30711"/>
<path d="M85.4252 65.925C82.1369 64.4902 78.5878 63.7497 75.0002 63.75C73.5377 63.75 72.1502 63.9 70.7627 64.125C72.2627 66.675 73.1252 69.6 73.1252 72.7125V78.75H90.0002V72.8625C90.0002 69.825 88.2002 67.125 85.4252 65.925ZM60.9002 62.4375C56.5127 60.4875 51.1127 59.0625 45.0002 59.0625C38.8877 59.0625 33.4877 60.525 29.1002 62.4375C27.1241 63.3283 25.4488 64.7731 24.2774 66.5969C23.1059 68.4206 22.4886 70.545 22.5002 72.7125V78.75H67.5002V72.7125C67.5002 68.2875 64.9502 64.2375 60.9002 62.4375ZM30.2627 71.25C30.6014 70.3878 31.2596 69.6894 32.1002 69.3C36.2252 67.4625 40.5752 66.5625 44.9627 66.5625C49.3877 66.5625 53.7002 67.5 57.8252 69.3C58.6877 69.675 59.3252 70.3875 59.6627 71.25H30.2627ZM33.7502 45C33.7502 51.225 38.7752 56.25 45.0002 56.25C51.2252 56.25 56.2502 51.225 56.2502 45C56.2502 38.775 51.2252 33.75 45.0002 33.75C38.7752 33.75 33.7502 38.775 33.7502 45ZM48.7502 45C48.7502 47.0625 47.0627 48.75 45.0002 48.75C42.9377 48.75 41.2502 47.0625 41.2502 45C41.2502 42.9375 42.9377 41.25 45.0002 41.25C47.0627 41.25 48.7502 42.9375 48.7502 45Z" fill="#C30711"/>
<path d="M9.3 40.725C8.1375 37.875 7.5 35.1 7.5 32.25C7.5 22.575 15.075 15 24.75 15C34.8 15 39.075 21.525 45 28.4625C50.8875 21.6 55.125 15 65.25 15C74.925 15 82.5 22.575 82.5 32.25C82.5 35.1 81.8625 37.875 80.7 40.725C83.1375 41.8875 85.125 43.8 86.4375 46.125C88.6875 41.625 90 37.05 90 32.25C90 18.375 79.125 7.5 65.25 7.5C57.4125 7.5 49.9125 11.1375 45 16.9125C40.0875 11.1375 32.5875 7.5 24.75 7.5C10.875 7.5 0 18.375 0 32.25C0 37.05 1.3125 41.625 3.6 46.125C4.9125 43.8 6.9 41.8875 9.3 40.725Z" fill="#C30711"/>
<path opacity="0.3" d="M65.25 15C55.2 15 50.925 21.525 45 28.4625C39.15 21.5625 34.875 15 24.75 15C15.075 15 7.5 22.575 7.5 32.25C7.5 35.1 8.1375 37.875 9.3 40.725C11.025 39.9 12.9375 39.375 15 39.375C22.2375 39.375 28.125 45.2625 28.125 52.5C28.125 54.1875 27.7875 55.7625 27.225 57.225C30.8625 55.65 34.575 54.6375 38.4 54.075C36.9621 53.0382 35.7908 51.675 34.9825 50.0973C34.1741 48.5197 33.7517 46.7727 33.75 45C33.75 38.775 38.775 33.75 45 33.75C51.225 33.75 56.25 38.775 56.25 45C56.25 48.75 54.4125 52.0125 51.6 54.075C55.425 54.6375 59.175 55.6875 62.775 57.2625C62.2125 55.8 61.875 54.1875 61.875 52.5375C61.875 45.3 67.7625 39.4125 75 39.4125C77.0625 39.4125 78.975 39.9375 80.7 40.7625C81.8625 37.875 82.5 35.1 82.5 32.25C82.5 22.575 74.925 15 65.25 15ZM30.2625 71.325H59.7C59.3612 70.4628 58.7031 69.7644 57.8625 69.375C53.7375 67.5375 49.3875 66.6375 45 66.6375C40.575 66.6375 36.2625 67.575 32.1375 69.375C31.275 69.75 30.6375 70.4625 30.2625 71.325Z" fill="#C30711"/>
<path opacity="0.3" d="M45 48.75C47.0711 48.75 48.75 47.0711 48.75 45C48.75 42.9289 47.0711 41.25 45 41.25C42.9289 41.25 41.25 42.9289 41.25 45C41.25 47.0711 42.9289 48.75 45 48.75Z" fill="#C30711"/>
</svg>
