<svg width="323" height="324" viewBox="0 0 323 324" fill="none" xmlns="http://www.w3.org/2000/svg">
<path d="M242.073 81.4271C286.736 126.091 286.895 198.459 242.427 242.927C197.959 287.395 125.591 287.237 80.9269 242.573C36.2632 197.909 36.1044 125.541 80.5726 81.0729C125.041 36.6047 197.409 36.7634 242.073 81.4271Z" stroke="#C30711" stroke-width="15.3483"/>
<path d="M287.151 63.7187L166.136 184.733L137.9 156.496L258.914 35.4819L287.151 63.7187Z" fill="white"/>
<path d="M161.009 114.04C187.245 114.04 208.548 135.343 208.548 161.579C208.548 187.816 187.245 209.118 161.009 209.118C134.772 209.118 113.47 187.816 113.47 161.579C113.47 135.343 134.772 114.04 161.009 114.04Z" fill="#041E35"/>
<path d="M277.748 54.3065L156.734 175.321L147.321 165.909L268.336 44.8943L277.748 54.3065Z" fill="#EA0814"/>
<path d="M282.572 40.4248V53.7357H237.928V40.4248H282.572Z" fill="#EA0814"/>
<path d="M282.424 84.9683H269.113V40.3245H282.424V84.9683Z" fill="#EA0814"/>
</svg>
