<svg width="91" height="91" viewBox="0 0 91 91" fill="none" xmlns="http://www.w3.org/2000/svg">
<path d="M45.666 0.666626C70.506 0.666626 90.666 20.8266 90.666 45.6666C90.666 70.5066 70.506 90.6666 45.666 90.6666C20.826 90.6666 0.666016 70.5066 0.666016 45.6666C0.666016 20.8266 20.826 0.666626 45.666 0.666626ZM45.666 81.6666C65.5875 81.6666 81.666 65.5881 81.666 45.6666C81.666 25.7451 65.5875 9.66663 45.666 9.66663C40.9368 9.6607 36.2528 10.5878 31.8824 12.3949C27.512 14.202 23.5411 16.8535 20.197 20.1976C16.8529 23.5417 14.2014 27.5126 12.3943 31.883C10.5872 36.2534 9.66009 40.9374 9.66602 45.6666C9.66602 65.5881 25.7445 81.6666 45.666 81.6666ZM45.666 72.6666C30.726 72.6666 18.666 60.6066 18.666 45.6666C18.666 30.7266 30.726 18.6666 45.666 18.6666C60.606 18.6666 72.666 30.7266 72.666 45.6666C72.666 60.6066 60.606 72.6666 45.666 72.6666ZM45.666 36.6666C40.716 36.6666 36.666 40.7166 36.666 45.6666C36.666 50.6166 40.716 54.6666 45.666 54.6666C50.616 54.6666 54.666 50.6166 54.666 45.6666C54.666 40.7166 50.616 36.6666 45.666 36.6666Z" fill="#C30711"/>
</svg>
