<svg width="90" height="90" viewBox="0 0 90 90" fill="none" xmlns="http://www.w3.org/2000/svg">
<path d="M39.1875 58.125C40.75 59.6875 42.7188 60.4213 45.0938 60.3263C47.4688 60.2338 49.1875 59.375 50.25 57.75L71.25 26.25L39.75 47.25C38.125 48.375 37.235 50.0775 37.08 52.3575C36.9225 54.64 37.625 56.5625 39.1875 58.125ZM19.125 75C17.75 75 16.485 74.7025 15.33 74.1075C14.1725 73.515 13.25 72.625 12.5625 71.4375C10.9375 68.5 9.6875 65.4538 8.8125 62.2988C7.9375 59.1413 7.5 55.875 7.5 52.5C7.5 47.3125 8.485 42.4375 10.455 37.875C12.4225 33.3125 15.0938 29.3438 18.4688 25.9688C21.8438 22.5938 25.8125 19.9213 30.375 17.9513C34.9375 15.9838 39.8125 15 45 15C50.125 15 54.9375 15.9688 59.4375 17.9063C63.9375 19.8438 67.875 22.485 71.25 25.83C74.625 29.1725 77.3125 33.0775 79.3125 37.545C81.3125 42.015 82.3438 46.8125 82.4063 51.9375C82.4688 55.375 82.0788 58.735 81.2363 62.0175C80.3913 65.2975 79.0938 68.4375 77.3438 71.4375C76.6563 72.625 75.735 73.515 74.58 74.1075C73.4225 74.7025 72.1563 75 70.7813 75H19.125Z" fill="#C30711"/>
</svg>
