<svg width="91" height="64" viewBox="0 0 91 64" fill="none" xmlns="http://www.w3.org/2000/svg">
<path fill-rule="evenodd" clip-rule="evenodd" d="M68.1865 58.7598C73.3432 54.5653 79.1299 51.0676 84.7627 47.7195C85.9778 47.0027 87.5567 47.3763 88.1928 48.5915C88.9211 49.7679 88.5014 51.3146 87.378 51.9916C81.9163 55.2317 76.2939 58.6025 71.3858 62.6161C70.3424 63.4775 68.7503 63.3266 67.8548 62.2675C66.9598 61.2093 67.1435 59.6221 68.1865 58.7598Z" fill="#A5C9FF"/>
<path fill-rule="evenodd" clip-rule="evenodd" d="M40.2574 43.1196C45.5239 29.3779 52.5214 16.3601 57.4922 2.4392C57.9167 1.1563 59.3631 0.470043 60.655 0.935377C61.9472 1.40163 62.669 2.81516 62.1527 4.13785C57.1942 18.0872 50.2086 31.1325 44.9545 44.9027C44.4287 46.2033 42.9667 46.8527 41.6641 46.3626C40.4536 45.8337 39.7316 44.4203 40.2574 43.1196Z" fill="#A5C9FF"/>
<path fill-rule="evenodd" clip-rule="evenodd" d="M6.46106 13.7106C8.57989 19.3491 10.6993 24.9874 12.8185 30.6268C13.3669 31.891 12.6888 33.3449 11.3778 33.8406C10.0664 34.3353 8.68271 33.6569 8.13394 32.3918C6.01114 26.7441 3.88819 21.0976 1.76578 15.4508C1.30915 14.1468 1.98958 12.6995 3.3038 12.2112C4.52628 11.7627 6.00483 12.4076 6.46106 13.7106Z" fill="#A5C9FF"/>
</svg>
